<svg width="89" height="69" viewBox="0 0 89 69" fill="none" xmlns="http://www.w3.org/2000/svg">
<g opacity="0.4">
<path d="M67.5177 24.1734C63.1647 10.1883 50.0131 0.000413784 34.5461 0.000413784C15.467 -0.0922031 0 15.3748 0 34.4539C0 53.533 15.467 69 34.5461 69C50.0131 69 63.0721 58.8121 67.5177 44.827L88.3565 34.4539L67.5177 24.1734ZM23.8952 33.2499H29.5448V47.976H14.8187V35.9358C14.8187 24.7291 20.7462 20.5614 30.3783 20.2835L31.5824 25.8405C26.3032 26.3962 23.7099 28.9895 23.8952 33.2499ZM44.5487 33.2499H50.1057V47.976H35.4723V35.9358C35.4723 24.7291 41.3071 20.5614 51.0319 20.2835L52.1433 25.8405C46.8641 26.3962 44.3635 28.9895 44.5487 33.2499Z" fill="#CF5979"/>
</g>
</svg>
