<svg width="104" height="16" viewBox="0 0 104 16" fill="none" xmlns="http://www.w3.org/2000/svg">
<path d="M11.9457 9.54674C11.773 9.71407 11.6937 9.95607 11.733 10.1934L12.3257 13.4734C12.3757 13.7514 12.2584 14.0327 12.0257 14.1934C11.7977 14.3601 11.4944 14.3801 11.2457 14.2467L8.29305 12.7067C8.19038 12.6521 8.07638 12.6227 7.95971 12.6194H7.77905C7.71638 12.6287 7.65505 12.6487 7.59905 12.6794L4.64571 14.2267C4.49971 14.3001 4.33438 14.3261 4.17238 14.3001C3.77771 14.2254 3.51438 13.8494 3.57905 13.4527L4.17238 10.1727C4.21171 9.93341 4.13238 9.69007 3.95971 9.52007L1.55238 7.18674C1.35105 6.99141 1.28105 6.69807 1.37305 6.43341C1.46238 6.16941 1.69038 5.97674 1.96571 5.93341L5.27905 5.45274C5.53105 5.42674 5.75238 5.27341 5.86571 5.04674L7.32571 2.05341C7.36038 1.98674 7.40505 1.92541 7.45905 1.87341L7.51905 1.82674C7.55038 1.79207 7.58638 1.76341 7.62638 1.74007L7.69905 1.71341L7.81238 1.66674H8.09305C8.34371 1.69274 8.56438 1.84274 8.67971 2.06674L10.159 5.04674C10.2657 5.26474 10.473 5.41607 10.7124 5.45274L14.0257 5.93341C14.3057 5.97341 14.5397 6.16674 14.6324 6.43341C14.7197 6.70074 14.6444 6.99407 14.439 7.18674L11.9457 9.54674Z" fill="#FDC332"/>
<path d="M33.9457 9.54674C33.773 9.71407 33.6937 9.95607 33.733 10.1934L34.3257 13.4734C34.3757 13.7514 34.2584 14.0327 34.0257 14.1934C33.7977 14.3601 33.4944 14.3801 33.2457 14.2467L30.293 12.7067C30.1904 12.6521 30.0764 12.6227 29.9597 12.6194H29.779C29.7164 12.6287 29.655 12.6487 29.599 12.6794L26.6457 14.2267C26.4997 14.3001 26.3344 14.3261 26.1724 14.3001C25.7777 14.2254 25.5144 13.8494 25.579 13.4527L26.1724 10.1727C26.2117 9.93341 26.1324 9.69007 25.9597 9.52007L23.5524 7.18674C23.351 6.99141 23.281 6.69807 23.373 6.43341C23.4624 6.16941 23.6904 5.97674 23.9657 5.93341L27.279 5.45274C27.531 5.42674 27.7524 5.27341 27.8657 5.04674L29.3257 2.05341C29.3604 1.98674 29.405 1.92541 29.459 1.87341L29.519 1.82674C29.5504 1.79207 29.5864 1.76341 29.6264 1.74007L29.699 1.71341L29.8124 1.66674H30.093C30.3437 1.69274 30.5644 1.84274 30.6797 2.06674L32.159 5.04674C32.2657 5.26474 32.473 5.41607 32.7124 5.45274L36.0257 5.93341C36.3057 5.97341 36.5397 6.16674 36.6324 6.43341C36.7197 6.70074 36.6444 6.99407 36.439 7.18674L33.9457 9.54674Z" fill="#FDC332"/>
<path d="M55.9457 9.54674C55.773 9.71407 55.6937 9.95607 55.733 10.1934L56.3257 13.4734C56.3757 13.7514 56.2584 14.0327 56.0257 14.1934C55.7977 14.3601 55.4944 14.3801 55.2457 14.2467L52.293 12.7067C52.1904 12.6521 52.0764 12.6227 51.9597 12.6194H51.779C51.7164 12.6287 51.655 12.6487 51.599 12.6794L48.6457 14.2267C48.4997 14.3001 48.3344 14.3261 48.1724 14.3001C47.7777 14.2254 47.5144 13.8494 47.579 13.4527L48.1724 10.1727C48.2117 9.93341 48.1324 9.69007 47.9597 9.52007L45.5524 7.18674C45.351 6.99141 45.281 6.69807 45.373 6.43341C45.4624 6.16941 45.6904 5.97674 45.9657 5.93341L49.279 5.45274C49.531 5.42674 49.7524 5.27341 49.8657 5.04674L51.3257 2.05341C51.3604 1.98674 51.405 1.92541 51.459 1.87341L51.519 1.82674C51.5504 1.79207 51.5864 1.76341 51.6264 1.74007L51.699 1.71341L51.8124 1.66674H52.093C52.3437 1.69274 52.5644 1.84274 52.6797 2.06674L54.159 5.04674C54.2657 5.26474 54.473 5.41607 54.7124 5.45274L58.0257 5.93341C58.3057 5.97341 58.5397 6.16674 58.6324 6.43341C58.7197 6.70074 58.6444 6.99407 58.439 7.18674L55.9457 9.54674Z" fill="#FDC332"/>
<path d="M77.9457 9.54674C77.773 9.71407 77.6937 9.95607 77.733 10.1934L78.3257 13.4734C78.3757 13.7514 78.2584 14.0327 78.0257 14.1934C77.7977 14.3601 77.4944 14.3801 77.2457 14.2467L74.293 12.7067C74.1904 12.6521 74.0764 12.6227 73.9597 12.6194H73.779C73.7164 12.6287 73.655 12.6487 73.599 12.6794L70.6457 14.2267C70.4997 14.3001 70.3344 14.3261 70.1724 14.3001C69.7777 14.2254 69.5144 13.8494 69.579 13.4527L70.1724 10.1727C70.2117 9.93341 70.1324 9.69007 69.9597 9.52007L67.5524 7.18674C67.351 6.99141 67.281 6.69807 67.373 6.43341C67.4624 6.16941 67.6904 5.97674 67.9657 5.93341L71.279 5.45274C71.531 5.42674 71.7524 5.27341 71.8657 5.04674L73.3257 2.05341C73.3604 1.98674 73.405 1.92541 73.459 1.87341L73.519 1.82674C73.5504 1.79207 73.5864 1.76341 73.6264 1.74007L73.699 1.71341L73.8124 1.66674H74.093C74.3437 1.69274 74.5644 1.84274 74.6797 2.06674L76.159 5.04674C76.2657 5.26474 76.473 5.41607 76.7124 5.45274L80.0257 5.93341C80.3057 5.97341 80.5397 6.16674 80.6324 6.43341C80.7197 6.70074 80.6444 6.99407 80.439 7.18674L77.9457 9.54674Z" fill="#FDC332"/>
<path d="M99.9457 9.54674C99.773 9.71407 99.6937 9.95607 99.733 10.1934L100.326 13.4734C100.376 13.7514 100.258 14.0327 100.026 14.1934C99.7977 14.3601 99.4944 14.3801 99.2457 14.2467L96.293 12.7067C96.1904 12.6521 96.0764 12.6227 95.9597 12.6194H95.779C95.7164 12.6287 95.655 12.6487 95.599 12.6794L92.6457 14.2267C92.4997 14.3001 92.3344 14.3261 92.1724 14.3001C91.7777 14.2254 91.5144 13.8494 91.579 13.4527L92.1724 10.1727C92.2117 9.93341 92.1324 9.69007 91.9597 9.52007L89.5524 7.18674C89.351 6.99141 89.281 6.69807 89.373 6.43341C89.4624 6.16941 89.6904 5.97674 89.9657 5.93341L93.279 5.45274C93.531 5.42674 93.7524 5.27341 93.8657 5.04674L95.3257 2.05341C95.3604 1.98674 95.405 1.92541 95.459 1.87341L95.519 1.82674C95.5504 1.79207 95.5864 1.76341 95.6264 1.74007L95.699 1.71341L95.8124 1.66674H96.093C96.3437 1.69274 96.5644 1.84274 96.6797 2.06674L98.159 5.04674C98.2657 5.26474 98.473 5.41607 98.7124 5.45274L102.026 5.93341C102.306 5.97341 102.54 6.16674 102.632 6.43341C102.72 6.70074 102.644 6.99407 102.439 7.18674L99.9457 9.54674Z" fill="#FDC332"/>
</svg>
