<svg width="152" height="24" viewBox="0 0 152 24" fill="none" xmlns="http://www.w3.org/2000/svg">
<path d="M17.9185 14.3201C17.6595 14.5711 17.5405 14.9341 17.5995 15.2901L18.4885 20.2101C18.5635 20.6271 18.3875 21.0491 18.0385 21.2901C17.6965 21.5401 17.2415 21.5701 16.8685 21.3701L12.4395 19.0601C12.2855 18.9781 12.1145 18.9341 11.9395 18.9291H11.6685C11.5745 18.9431 11.4825 18.9731 11.3985 19.0191L6.96851 21.3401C6.74951 21.4501 6.50151 21.4891 6.25851 21.4501C5.66651 21.3381 5.27151 20.7741 5.36851 20.1791L6.25851 15.2591C6.31751 14.9001 6.19851 14.5351 5.93951 14.2801L2.32851 10.7801C2.02651 10.4871 1.92151 10.0471 2.05951 9.65012C2.19351 9.25412 2.53551 8.96512 2.94851 8.90012L7.91851 8.17912C8.29651 8.14012 8.62851 7.91012 8.79851 7.57012L10.9885 3.08012C11.0405 2.98012 11.1075 2.88812 11.1885 2.81012L11.2785 2.74012C11.3255 2.68812 11.3795 2.64512 11.4395 2.61012L11.5485 2.57012L11.7185 2.50012H12.1395C12.5155 2.53912 12.8465 2.76412 13.0195 3.10012L15.2385 7.57012C15.3985 7.89712 15.7095 8.12412 16.0685 8.17912L21.0385 8.90012C21.4585 8.96012 21.8095 9.25012 21.9485 9.65012C22.0795 10.0511 21.9665 10.4911 21.6585 10.7801L17.9185 14.3201Z" fill="#FDC332"/>
<path d="M49.9185 14.3201C49.6595 14.5711 49.5405 14.9341 49.5995 15.2901L50.4885 20.2101C50.5635 20.6271 50.3875 21.0491 50.0385 21.2901C49.6965 21.5401 49.2415 21.5701 48.8685 21.3701L44.4395 19.0601C44.2855 18.9781 44.1145 18.9341 43.9395 18.9291H43.6685C43.5745 18.9431 43.4825 18.9731 43.3985 19.0191L38.9685 21.3401C38.7495 21.4501 38.5015 21.4891 38.2585 21.4501C37.6665 21.3381 37.2715 20.7741 37.3685 20.1791L38.2585 15.2591C38.3175 14.9001 38.1985 14.5351 37.9395 14.2801L34.3285 10.7801C34.0265 10.4871 33.9215 10.0471 34.0595 9.65012C34.1935 9.25412 34.5355 8.96512 34.9485 8.90012L39.9185 8.17912C40.2965 8.14012 40.6285 7.91012 40.7985 7.57012L42.9885 3.08012C43.0405 2.98012 43.1075 2.88812 43.1885 2.81012L43.2785 2.74012C43.3255 2.68812 43.3795 2.64512 43.4395 2.61012L43.5485 2.57012L43.7185 2.50012H44.1395C44.5155 2.53912 44.8465 2.76412 45.0195 3.10012L47.2385 7.57012C47.3985 7.89712 47.7095 8.12412 48.0685 8.17912L53.0385 8.90012C53.4585 8.96012 53.8095 9.25012 53.9485 9.65012C54.0795 10.0511 53.9665 10.4911 53.6585 10.7801L49.9185 14.3201Z" fill="#FDC332"/>
<path d="M81.9185 14.3201C81.6595 14.5711 81.5405 14.9341 81.5995 15.2901L82.4885 20.2101C82.5635 20.6271 82.3875 21.0491 82.0385 21.2901C81.6965 21.5401 81.2415 21.5701 80.8685 21.3701L76.4395 19.0601C76.2855 18.9781 76.1145 18.9341 75.9395 18.9291H75.6685C75.5745 18.9431 75.4825 18.9731 75.3985 19.0191L70.9685 21.3401C70.7495 21.4501 70.5015 21.4891 70.2585 21.4501C69.6665 21.3381 69.2715 20.7741 69.3685 20.1791L70.2585 15.2591C70.3175 14.9001 70.1985 14.5351 69.9395 14.2801L66.3285 10.7801C66.0265 10.4871 65.9215 10.0471 66.0595 9.65012C66.1935 9.25412 66.5355 8.96512 66.9485 8.90012L71.9185 8.17912C72.2965 8.14012 72.6285 7.91012 72.7985 7.57012L74.9885 3.08012C75.0405 2.98012 75.1075 2.88812 75.1885 2.81012L75.2785 2.74012C75.3255 2.68812 75.3795 2.64512 75.4395 2.61012L75.5485 2.57012L75.7185 2.50012H76.1395C76.5155 2.53912 76.8465 2.76412 77.0195 3.10012L79.2385 7.57012C79.3985 7.89712 79.7095 8.12412 80.0685 8.17912L85.0385 8.90012C85.4585 8.96012 85.8095 9.25012 85.9485 9.65012C86.0795 10.0511 85.9665 10.4911 85.6585 10.7801L81.9185 14.3201Z" fill="#FDC332"/>
<path d="M113.919 14.3201C113.66 14.5711 113.541 14.9341 113.6 15.2901L114.489 20.2101C114.564 20.6271 114.388 21.0491 114.039 21.2901C113.697 21.5401 113.242 21.5701 112.869 21.3701L108.44 19.0601C108.286 18.9781 108.115 18.9341 107.94 18.9291H107.669C107.575 18.9431 107.483 18.9731 107.399 19.0191L102.969 21.3401C102.75 21.4501 102.502 21.4891 102.259 21.4501C101.667 21.3381 101.272 20.7741 101.369 20.1791L102.259 15.2591C102.318 14.9001 102.199 14.5351 101.94 14.2801L98.3285 10.7801C98.0265 10.4871 97.9215 10.0471 98.0595 9.65012C98.1935 9.25412 98.5355 8.96512 98.9485 8.90012L103.919 8.17912C104.297 8.14012 104.629 7.91012 104.799 7.57012L106.989 3.08012C107.041 2.98012 107.108 2.88812 107.189 2.81012L107.279 2.74012C107.326 2.68812 107.38 2.64512 107.44 2.61012L107.549 2.57012L107.719 2.50012H108.14C108.516 2.53912 108.847 2.76412 109.02 3.10012L111.239 7.57012C111.399 7.89712 111.71 8.12412 112.069 8.17912L117.039 8.90012C117.459 8.96012 117.81 9.25012 117.949 9.65012C118.08 10.0511 117.967 10.4911 117.659 10.7801L113.919 14.3201Z" fill="#FDC332"/>
<path d="M145.919 14.3201C145.66 14.5711 145.541 14.9341 145.6 15.2901L146.489 20.2101C146.564 20.6271 146.388 21.0491 146.039 21.2901C145.697 21.5401 145.242 21.5701 144.869 21.3701L140.44 19.0601C140.286 18.9781 140.115 18.9341 139.94 18.9291H139.669C139.575 18.9431 139.483 18.9731 139.399 19.0191L134.969 21.3401C134.75 21.4501 134.502 21.4891 134.259 21.4501C133.667 21.3381 133.272 20.7741 133.369 20.1791L134.259 15.2591C134.318 14.9001 134.199 14.5351 133.94 14.2801L130.329 10.7801C130.027 10.4871 129.922 10.0471 130.06 9.65012C130.194 9.25412 130.536 8.96512 130.949 8.90012L135.919 8.17912C136.297 8.14012 136.629 7.91012 136.799 7.57012L138.989 3.08012C139.041 2.98012 139.108 2.88812 139.189 2.81012L139.279 2.74012C139.326 2.68812 139.38 2.64512 139.44 2.61012L139.549 2.57012L139.719 2.50012H140.14C140.516 2.53912 140.847 2.76412 141.02 3.10012L143.239 7.57012C143.399 7.89712 143.71 8.12412 144.069 8.17912L149.039 8.90012C149.459 8.96012 149.81 9.25012 149.949 9.65012C150.08 10.0511 149.967 10.4911 149.659 10.7801L145.919 14.3201Z" fill="#FDC332"/>
</svg>
