<svg width="196" height="194" viewBox="0 0 196 194" fill="none" xmlns="http://www.w3.org/2000/svg">
<path d="M0 131C0 96.2061 28.2061 68 63 68H126V131C126 165.794 97.7939 194 63 194V194C28.2061 194 0 165.794 0 131V131Z" fill="#33D9B2"/>
<g filter="url(#filter0_f_386_38)">
<circle cx="102" cy="94" r="24" fill="white"/>
</g>
<path d="M49 137C44.58 137 41 140.58 41 145C41 146.5 41.42 147.92 42.16 149.12C43.54 151.44 46.08 153 49 153C51.92 153 54.46 151.44 55.84 149.12C56.58 147.92 57 146.5 57 145C57 140.58 53.42 137 49 137ZM52.94 144.34L48.68 148.28C48.4 148.54 48.02 148.68 47.66 148.68C47.28 148.68 46.9 148.54 46.6 148.24L44.62 146.26C44.04 145.68 44.04 144.72 44.62 144.14C45.2 143.56 46.16 143.56 46.74 144.14L47.7 145.1L50.9 142.14C51.5 141.58 52.46 141.62 53.02 142.22C53.58 142.82 53.54 143.78 52.94 144.34Z" fill="white"/>
<path d="M82 132H77C74.8 132 73 133.8 73 136C73 138.2 74.8 140 77 140H82C82.56 140 83 139.56 83 139V133C83 132.44 82.56 132 82 132Z" fill="white"/>
<path d="M72.0604 117.8C72.6604 118.38 72.1604 119.28 71.3204 119.28L54.7604 119.26C53.8004 119.26 53.3204 118.1 54.0004 117.42L57.5004 113.9C60.4604 110.96 65.2404 110.96 68.2004 113.9L71.9804 117.72C72.0004 117.74 72.0404 117.78 72.0604 117.8Z" fill="white"/>
<path d="M82.7397 144.32C81.5197 148.44 77.9997 151 73.1997 151H60.1997C59.4197 151 58.9197 150.14 59.2397 149.42C59.8397 148.02 60.2197 146.44 60.2197 145C60.2197 138.94 55.2797 134 49.2197 134C47.6997 134 46.2197 134.32 44.8597 134.92C44.1197 135.24 43.2197 134.74 43.2197 133.94V131C43.2197 125.56 46.4997 121.76 51.5997 121.12C52.0997 121.04 52.6397 121 53.1997 121H73.1997C73.7197 121 74.2197 121.02 74.6997 121.1C78.7397 121.56 81.6597 124.02 82.7397 127.68C82.9397 128.34 82.4597 129 81.7797 129H77.1997C72.8597 129 69.4197 132.96 70.3597 137.46C71.0197 140.74 74.0597 143 77.3997 143H81.7797C82.4797 143 82.9397 143.68 82.7397 144.32Z" fill="white"/>
<defs>
<filter id="filter0_f_386_38" x="8" y="0" width="188" height="188" filterUnits="userSpaceOnUse" color-interpolation-filters="sRGB">
<feFlood flood-opacity="0" result="BackgroundImageFix"/>
<feBlend mode="normal" in="SourceGraphic" in2="BackgroundImageFix" result="shape"/>
<feGaussianBlur stdDeviation="35" result="effect1_foregroundBlur_386_38"/>
</filter>
</defs>
</svg>
