<svg width="36" height="36" viewBox="0 0 36 36" fill="none" xmlns="http://www.w3.org/2000/svg">
<path d="M25.8001 18.5999C21.8251 18.5999 18.6001 21.8249 18.6001 25.7999C18.6001 27.1499 18.9751 28.4249 19.6501 29.5049C20.8951 31.5899 23.1751 32.9999 25.8001 32.9999C28.4251 32.9999 30.7201 31.5899 31.9501 29.5049C32.6101 28.4249 33.0001 27.1499 33.0001 25.7999C33.0001 21.8249 29.7751 18.5999 25.8001 18.5999ZM29.3701 24.8549L25.5301 28.3949C25.3201 28.5899 25.0351 28.6949 24.7651 28.6949C24.4801 28.6949 24.1951 28.5899 23.9701 28.3649L22.2001 26.5949C21.7651 26.1599 21.7651 25.4399 22.2001 25.0049C22.6351 24.5699 23.3551 24.5699 23.7901 25.0049L24.7951 26.0099L27.8401 23.1899C28.2901 22.7699 29.0101 22.7999 29.4301 23.2499C29.8501 23.7149 29.8201 24.4349 29.3701 24.8549Z" fill="white"/>
<path d="M33 13.095C33 14.88 32.715 16.53 32.22 18.06C32.13 18.375 31.755 18.465 31.485 18.27C29.85 17.055 27.855 16.41 25.8 16.41C20.595 16.41 16.35 20.655 16.35 25.86C16.35 27.48 16.77 29.07 17.565 30.48C17.805 30.9 17.52 31.44 17.07 31.275C13.455 30.045 6.15 25.56 3.78 18.06C3.285 16.53 3 14.88 3 13.095C3 8.45996 6.735 4.70996 11.34 4.70996C14.055 4.70996 16.485 6.02996 18 8.05496C19.515 6.02996 21.945 4.70996 24.66 4.70996C29.265 4.70996 33 8.45996 33 13.095Z" fill="white"/>
</svg>
