<svg width="36" height="36" viewBox="0 0 36 36" fill="none" xmlns="http://www.w3.org/2000/svg">
<path d="M24.285 3H11.715C6.255 3 3 6.255 3 11.715V24.27C3 29.745 6.255 33 11.715 33H24.27C29.73 33 32.985 29.745 32.985 24.285V11.715C33 6.255 29.745 3 24.285 3ZM23.625 23.625H12.375C11.76 23.625 11.25 23.115 11.25 22.5C11.25 21.885 11.76 21.375 12.375 21.375H23.625C24.24 21.375 24.75 21.885 24.75 22.5C24.75 23.115 24.24 23.625 23.625 23.625ZM23.625 14.625H12.375C11.76 14.625 11.25 14.115 11.25 13.5C11.25 12.885 11.76 12.375 12.375 12.375H23.625C24.24 12.375 24.75 12.885 24.75 13.5C24.75 14.115 24.24 14.625 23.625 14.625Z" fill="white"/>
</svg>
