<svg width="36" height="36" viewBox="0 0 36 36" fill="none" xmlns="http://www.w3.org/2000/svg">
<path d="M17.9103 3.31499L14.2953 11.73H10.6803C10.0803 11.73 9.49529 11.775 8.92529 11.895L10.4253 8.29499L10.4853 8.15999L10.5753 7.91999C10.6203 7.81499 10.6503 7.72499 10.6953 7.64999C12.4353 3.61499 14.3853 2.35499 17.9103 3.31499Z" fill="white"/>
<path d="M28.0952 12.135L28.0652 12.12C27.1652 11.865 26.2502 11.73 25.3202 11.73H15.9302L19.3052 3.88503L19.3502 3.78003C19.5602 3.85503 19.7852 3.96003 20.0102 4.03503L23.3252 5.43003C25.1702 6.19503 26.4602 6.99003 27.2552 7.95003C27.3902 8.13003 27.5102 8.29503 27.6302 8.49003C27.7652 8.70003 27.8702 8.91003 27.9302 9.13503C27.9902 9.27003 28.0352 9.39003 28.0652 9.52503C28.2902 10.29 28.3052 11.16 28.0952 12.135Z" fill="white"/>
<path d="M27.4354 14.28C26.7604 14.085 26.0554 13.98 25.3204 13.98H10.6804C9.66035 13.98 8.70035 14.175 7.80035 14.565C5.19035 15.69 3.36035 18.285 3.36035 21.3V24.225C3.36035 24.585 3.39035 24.93 3.43535 25.29C3.76535 30.06 6.31535 32.61 11.0854 32.925C11.4304 32.97 11.7754 33 12.1504 33H23.8504C29.4004 33 32.3254 30.36 32.6104 25.11C32.6254 24.825 32.6404 24.525 32.6404 24.225V21.3C32.6404 17.985 30.4354 15.195 27.4354 14.28ZM21.7504 24.285H19.1254V27C19.1254 27.615 18.6154 28.125 18.0004 28.125C17.3854 28.125 16.8754 27.615 16.8754 27V24.285H14.2504C13.6354 24.285 13.1254 23.79 13.1254 23.16C13.1254 22.545 13.6354 22.035 14.2504 22.035H16.8754V19.5C16.8754 18.885 17.3854 18.375 18.0004 18.375C18.6154 18.375 19.1254 18.885 19.1254 19.5V22.035H21.7504C22.3654 22.035 22.8754 22.545 22.8754 23.16C22.8754 23.79 22.3654 24.285 21.7504 24.285Z" fill="white"/>
</svg>
