<svg width="35" height="35" viewBox="0 0 35 35" fill="none" xmlns="http://www.w3.org/2000/svg">
<path d="M31.2811 19.8917V21.35C31.2811 21.7438 30.9748 22.0646 30.5665 22.0792H28.4373C27.6644 22.0792 26.9644 21.5104 26.9061 20.7521C26.8623 20.3 27.0373 19.8771 27.329 19.5854C27.5915 19.3083 27.9561 19.1625 28.3498 19.1625H30.5519C30.9748 19.1771 31.2811 19.4979 31.2811 19.8917Z" fill="#33D9B2"/>
<path d="M26.2357 18.5062C25.5066 19.2208 25.1566 20.2854 25.4482 21.3937C25.8274 22.75 27.1545 23.6104 28.5545 23.6104H29.8232C30.6253 23.6104 31.2816 24.2667 31.2816 25.0687V25.3458C31.2816 28.3646 28.817 30.8292 25.7982 30.8292H9.05658C6.03783 30.8292 3.57324 28.3646 3.57324 25.3458V15.5312C3.57324 13.7375 4.43366 12.1479 5.76074 11.1562C6.67949 10.4562 7.81699 10.0479 9.05658 10.0479H25.7982C28.817 10.0479 31.2816 12.5125 31.2816 15.5312V16.1729C31.2816 16.975 30.6253 17.6312 29.8232 17.6312H28.3357C27.5191 17.6312 26.7753 17.9521 26.2357 18.5062Z" fill="#706FD3"/>
<path d="M23.6248 7.02916C24.0186 7.42291 23.6831 8.03541 23.129 8.03541L11.929 8.02082C11.2873 8.02082 10.9519 7.23332 11.4186 6.78124L13.7811 4.40416C15.779 2.42082 19.0165 2.42082 21.0144 4.40416L23.5665 6.98541C23.5811 6.99999 23.6102 7.01457 23.6248 7.02916Z" fill="#33D9B2"/>
</svg>
