<svg width="127" height="22" fill="none" xmlns="http://www.w3.org/2000/svg"><path d="M11.31 0l3.495 7.08 7.816 1.143-5.655 5.508 1.334 7.781-6.99-3.675-6.99 3.675 1.335-7.781L0 8.223 7.816 7.08 11.31 0zm26 0l3.495 7.08 7.816 1.143-5.655 5.508 1.334 7.781-6.99-3.675-6.99 3.675 1.335-7.781L26 8.223l7.816-1.143L37.31 0zm26 0l3.495 7.08 7.816 1.143-5.655 5.508 1.334 7.781-6.99-3.675-6.99 3.675 1.335-7.781L52 8.223l7.816-1.143L63.31 0zm26 0l3.495 7.08 7.816 1.143-5.655 5.508 1.334 7.781-6.99-3.675-6.99 3.675 1.335-7.781L78 8.223l7.816-1.143L89.31 0zm26.19 0l3.554 7.24L127 8.41l-5.75 5.633L122.607 22l-7.107-3.76-7.107 3.76 1.357-7.958L104 8.41l7.946-1.168L115.5 0z" fill="#F9B401"/></svg>